# xmcd CD database file
#
# Track frame offsets:
#	150
#	13029
#	29271
#	43970
#	55308
#	76301
#	90305
#	102677
#	121275
#	131687
#	150580
#	159745
#	175829
#	195917
#
# Disc length: 2775 seconds
#
# Revision: 1
# Processed by: cddbd v1.5.2PL0 Copyright (c) Steve Scherf et al.
# Submitted via: CDex 1.70beta2
#
DISCID=b00ad50e
DTITLE=Sasha Dobson - Modern Romance
DYEAR=2006
DGENRE=Jazz
TTITLE0=Without You
TTITLE1=Modern Romance
TTITLE2=Been Here Before
TTITLE3=Cold To Colder
TTITLE4=Four Leaf Closer
TTITLE5=Crescent
TTITLE6=If Not For Dreams
TTITLE7=Follow Through
TTITLE8=Spring Is Just Around The Corner
TTITLE9=Young And Free
TTITLE10=End Of Autumn
TTITLE11=I Never Changed My Mind
TTITLE12=Mood Indigo
TTITLE13=While The Music Lasts (Bonus Track)
EXTD=YEAR: 2006
EXTT0=
EXTT1=
EXTT2=
EXTT3=
EXTT4=
EXTT5=
EXTT6=
EXTT7=
EXTT8=
EXTT9=
EXTT10=
EXTT11=
EXTT12=
EXTT13=
PLAYORDER=
